<svg id="Layer_1" data-name="Layer 1" xmlns="http://www.w3.org/2000/svg" xmlns:xlink="http://www.w3.org/1999/xlink" viewBox="0 0 85.32 18.43">
  <defs>
    <style>
      .cls-1 {
        fill: none;
      }

      .cls-2 {
        clip-path: url(#clip-path);
      }

      .cls-3 {
        fill:  #320d00;
      }
    </style>
    <clipPath id="clip-path" transform="translate(0 0)">
      <rect class="cls-1" width="85.32" height="18.43"/>
    </clipPath>
  </defs>
  <g class="cls-2">
    <path class="cls-3" d="M68.39,16.46a14.35,14.35,0,0,0,2.9-1.87c-1.89-1.38-3.76-2.93-6.05-3.18a3,3,0,0,0-3.37,2.11c-.67,2.33,1.3,5.4,6.52,2.94m13.82.74L81.66,17a22,22,0,0,1-7.3-3.73c-.36.34-.72.65-1.08,1,2.71,1.88,6.08,3.88,8.93,2.93M70.49,12.33c.54.36,1.17.82,1.84,1.29.38-.37.75-.75,1.09-1.14a8.71,8.71,0,0,1-2.88-7.9c.82-4.75,6.36-6,9.89-2.9.23.22.49.45.73.71a7.15,7.15,0,0,1,1.61,2.86,3.35,3.35,0,0,1-1,3.57,6.18,6.18,0,0,1-3.7,1c-.81-.09-1.37-.51-1.14-1.49.38-1.63,2.21-.79,3.51-.83a1.66,1.66,0,0,0,.71-.14,1.88,1.88,0,0,0,1.22-1.76A4.6,4.6,0,0,0,81.19,3a4.2,4.2,0,0,0-.29-.32h0A6.25,6.25,0,0,0,75.54.74c-5.58,1-3.89,7.13-1.25,10.74a11.17,11.17,0,0,0,.91,1.09c.23.23.49.47.72.67a18.8,18.8,0,0,0,7,3.64,5.7,5.7,0,0,0,.67-.46,2.13,2.13,0,0,0-1.47-3.91c2.68-2.06,4.25,2.47,2.24,4.68a2.17,2.17,0,0,1-.49.45,3.54,3.54,0,0,1-.7.38c-3.12,1.23-7.59-.71-10.27-2.3-.27-.17-.54-.33-.82-.53a19.39,19.39,0,0,1-5,2.94c-2.93,1.08-8.63-.76-6.89-4.93s7.48-2.66,10.25-.87" transform="translate(0 0)"/>
    <path class="cls-3" d="M61.52,15.09a.92.92,0,0,1-.33.84c-1.24,1.08-4.2.65-6.11.63-3.25,0-6.47-.22-9.71-.3l-21.06-.52L0,15.16l.46,0c.74,0,1.49,0,2.23-.05l33.45-.8,17.57-.43,5.52-.13a2.12,2.12,0,0,1,2.29,1.37" transform="translate(0 0)"/>
  </g>
</svg>
